<?xml version="1.0" encoding="UTF-8"?>
<svg width="1024px" height="1024px" viewBox="0 0 1024 1024" version="1.1" xmlns="http://www.w3.org/2000/svg" xmlns:xlink="http://www.w3.org/1999/xlink">
    <!-- Generator: Sketch 51.3 (57544) - http://www.bohemiancoding.com/sketch -->
    <title>logo</title>
    <desc>Created with Sketch.</desc>
    <defs></defs>
    <g id="logo" stroke="none" stroke-width="1" fill="none" fill-rule="evenodd">
        <path d="M959.5,161.154813 C983.057603,161.154813 1002.15481,142.057603 1002.15481,118.5 C1002.15481,94.9423972 983.057603,75.8451869 959.5,75.8451869 L820.354314,75.8451869 C785.243724,75.8451869 753.280958,96.0912774 738.277599,127.834824 C736.803469,130.953734 736.038904,134.360591 736.038904,137.810325 C736.038904,150.70313 746.490588,161.154813 759.383392,161.154813 L959.5,161.154813 Z M265.661024,161.154813 C269.102939,161.154813 272.502495,160.395701 275.617472,158.931564 C287.31625,153.432769 292.34233,139.491382 286.843536,127.792604 C271.94066,96.0864839 240.060853,75.8451869 205.026959,75.8451869 L64.5,75.8451869 C40.9423972,75.8451869 21.8451869,94.9423972 21.8451869,118.5 C21.8451869,142.057603 40.9423972,161.154813 64.5,161.154813 L265.661024,161.154813 Z" id="Combined-Shape" stroke="#7510F7" stroke-width="43.6903737" fill="#7510F7" fill-rule="nonzero"></path>
        <path d="M396.517697,311 L396.517697,311 C407.389283,334.153929 397.432477,361.73706 374.278548,372.608646 C368.119214,375.500671 361.398298,377 354.593799,377 L66,377 C29.5492065,377 4.46393476e-15,347.450793 0,311 L0,311 C-4.46393476e-15,274.549207 29.5492065,245 66,245 L292.615143,245 C337.114635,245 377.604676,270.719702 396.517697,311 Z" id="Combined-Shape" fill="#7510F7" fill-rule="nonzero"></path>
        <path d="M1024,311 L1024,311 C1024,347.450793 994.450793,377 958,377 L669.948945,377 C644.404366,377 623.696394,356.292028 623.696394,330.747449 C623.696394,323.918841 625.208409,317.174946 628.123872,311 L628.123872,311 C647.148951,270.704906 687.711314,245 732.271927,245 L958,245 C994.450793,245 1024,274.549207 1024,311 Z" id="Path" fill-opacity="0.1953125" fill="#7510F7" fill-rule="nonzero"></path>
        <path d="M302.314521,464.845187 C298.646712,464.845187 295.028031,465.688677 291.738246,467.310446 C279.889447,473.151561 275.019257,487.49207 280.860372,499.340869 C297.103567,532.290459 330.65093,553.154813 367.386702,553.154813 L656.060407,553.154813 C692.875692,553.154813 726.508983,532.286131 742.856886,499.2996 C744.489048,496.006249 745.338254,492.380335 745.338254,488.704724 C745.338254,475.527465 734.655975,464.845187 721.478717,464.845187 L302.314521,464.845187 Z" id="Path-Copy" stroke="#7510F7" stroke-width="43.6903737" fill="#7510F7" fill-rule="nonzero"></path>
        <path d="M885.723785,464.845187 C861.337755,464.845187 841.568972,484.61397 841.568972,509 C841.568972,533.38603 861.337755,553.154813 885.723785,553.154813 L958,553.154813 C982.38603,553.154813 1002.15481,533.38603 1002.15481,509 C1002.15481,484.61397 982.38603,464.845187 958,464.845187 L885.723785,464.845187 Z" id="Path" stroke="#7510F7" stroke-width="43.6903737" fill="#7510F7" fill-rule="nonzero"></path>
        <path d="M66,443 L138.276215,443 C174.727008,443 204.276215,472.549207 204.276215,509 L204.276215,509 C204.276215,545.450793 174.727008,575 138.276215,575 L66,575 C29.5492065,575 4.46393476e-15,545.450793 0,509 L0,509 C-4.46393476e-15,472.549207 29.5492065,443 66,443 Z" id="Path" fill-opacity="0.1953125" fill="#7510F7" fill-rule="nonzero"></path>
        <path d="M66,643 L138.276215,643 C174.727008,643 204.276215,672.549207 204.276215,709 L204.276215,709 C204.276215,745.450793 174.727008,775 138.276215,775 L66,775 C29.5492065,775 4.46393476e-15,745.450793 0,709 L0,709 C-4.46393476e-15,672.549207 29.5492065,643 66,643 Z" id="Path" fill-opacity="0.1953125" fill="#7510F7" fill-rule="nonzero"></path>
        <path d="M400.609692,664.845187 C396.941883,664.845187 393.323203,665.688677 390.033417,667.310446 C378.184618,673.151561 373.314428,687.49207 379.155544,699.340869 C395.398738,732.290459 428.946102,753.154813 465.681873,753.154813 L557.242389,753.154813 C594.057674,753.154813 627.690965,732.286131 644.038868,699.2996 C645.67103,696.006249 646.520236,692.380335 646.520236,688.704724 C646.520236,675.527465 635.837957,664.845187 622.660699,664.845187 L400.609692,664.845187 Z" id="Path" stroke="#7510F7" stroke-width="43.6903737" fill="#7510F7" fill-rule="nonzero"></path>
        <path d="M885.723785,664.845187 C861.337755,664.845187 841.568972,684.61397 841.568972,709 C841.568972,733.38603 861.337755,753.154813 885.723785,753.154813 L958,753.154813 C982.38603,753.154813 1002.15481,733.38603 1002.15481,709 C1002.15481,684.61397 982.38603,664.845187 958,664.845187 L885.723785,664.845187 Z" id="Path" stroke="#7510F7" stroke-width="43.6903737" fill="#7510F7" fill-rule="nonzero"></path>
        <path d="M64,842 L140.276215,842 C175.622439,842 204.276215,870.653776 204.276215,906 L204.276215,906 C204.276215,941.346224 175.622439,970 140.276215,970 L64,970 C28.653776,970 4.32866401e-15,941.346224 0,906 L0,906 C-4.32866401e-15,870.653776 28.653776,842 64,842 Z" id="Path" fill="#7510F7" fill-rule="nonzero"></path>
        <path d="M883.723785,842 L960,842 C995.346224,842 1024,870.653776 1024,906 L1024,906 C1024,941.346224 995.346224,970 960,970 L883.723785,970 C848.377561,970 819.723785,941.346224 819.723785,906 L819.723785,906 C819.723785,870.653776 848.377561,842 883.723785,842 Z" id="Path" fill-opacity="0.1953125" fill="#7510F7" fill-rule="nonzero"></path>
    </g>
</svg>